<svg xmlns="http://www.w3.org/2000/svg" width="143" height="50" viewBox="0 0 143 50">
  <defs>
    <style>
      .cls-1 {
        fill: #3a3a3a;
        font-size: 14px;
        font-family: PingFangSC-Regular, PingFang SC;
        letter-spacing: 0.05em;
      }

      .cls-2 {
        fill: #f7f7f7;
      }

      .cls-3 {
        fill: #747474;
      }
    </style>
  </defs>
  <g id="元数据采集" transform="translate(-330 -209)">
    <text id="元数据采集-2" data-name="元数据采集" class="cls-1" transform="translate(400 240)"><tspan x="0" y="0">元数据采集</tspan></text>
    <g id="元数据采集-3" data-name="元数据采集" transform="translate(95.994 -192.178)">
      <rect id="矩形_1461_拷贝" data-name="矩形 1461 拷贝" class="cls-2" width="50" height="50" transform="translate(234.007 401.178)"/>
      <path id="联合_8" data-name="联合 8" class="cls-3" d="M14.583,20.353H8.162a2.431,2.431,0,0,1-2.012,1.059,2.39,2.39,0,0,1-2.412-2.353,2.3,2.3,0,0,1,.436-1.346L2.507,11.528l-.1,0a2.354,2.354,0,1,1,0-4.706A2.444,2.444,0,0,1,3.333,7L5.819,3.8a2.3,2.3,0,0,1-.513-1.447A2.417,2.417,0,0,1,10.1,2h5.361a2.417,2.417,0,0,1,4.8.353,2.291,2.291,0,0,1-.322,1.172l2.278,6.557A2.373,2.373,0,0,1,24,12.353a2.316,2.316,0,0,1-2.412,2.353,2.481,2.481,0,0,1-.254-.013L19.022,18.56a2.287,2.287,0,0,1,.274,1.087A2.39,2.39,0,0,1,16.884,22,2.416,2.416,0,0,1,14.583,20.353Zm-.1-.941a2.376,2.376,0,0,1,1.557-1.968L14,11.972a2.472,2.472,0,0,1-.373.028,2.408,2.408,0,0,1-2.363-1.882H4.621a2.4,2.4,0,0,1-1.045,1.117l1.538,5.7a2.436,2.436,0,0,1,1.036-.23,2.39,2.39,0,0,1,2.412,2.353,2.282,2.282,0,0,1-.028.353Zm3.79-1.685L20.3,14.34a2.344,2.344,0,0,1-1.123-1.987,2.376,2.376,0,0,1,1.873-2.293l-1.92-5.715a2.436,2.436,0,0,1-1.28.361,2.468,2.468,0,0,1-.378-.029c.012.018.017.029.017.029L15.323,7.978a2.309,2.309,0,0,1-.266,3.562l2.153,5.776A2.432,2.432,0,0,1,18.273,17.727Zm-7.009-8.55a2.408,2.408,0,0,1,2.363-1.882,2.443,2.443,0,0,1,.883.164L16.57,4.345a2.371,2.371,0,0,1-1.056-1.4h-5.46A2.412,2.412,0,0,1,7.718,4.706a2.44,2.44,0,0,1-1.033-.228L4.232,7.637a2.307,2.307,0,0,1,.592,1.539Z" transform="translate(247.006 415.178)"/>
    </g>
  </g>
</svg>
