<svg xmlns="http://www.w3.org/2000/svg" width="129" height="50" viewBox="0 0 129 50">
  <defs>
    <style>
      .cls-1 {
        fill: #3a3a3a;
        font-size: 14px;
        font-family: PingFangSC-Regular, PingFang SC;
        letter-spacing: 0.05em;
      }

      .cls-2 {
        fill: #f7f7f7;
      }

      .cls-3 {
        fill: #747474;
      }
    </style>
  </defs>
  <g id="日志采集" transform="translate(-330 -209)">
    <text id="日志采集-2" data-name="日志采集" class="cls-1" transform="translate(400 240)"><tspan x="0" y="0">日志采集</tspan></text>
    <g id="日志采集-3" data-name="日志采集" transform="translate(-29.712 -238.24)">
      <rect id="矩形_1461_拷贝" data-name="矩形 1461 拷贝" class="cls-2" width="50" height="50" transform="translate(359.712 447.24)"/>
      <path id="联合_9" data-name="联合 9" class="cls-3" d="M-7023.974,191.947l-9.877-4.974a.725.725,0,0,1-.437-.538V174.949a.847.847,0,0,1,.085-.428,1.209,1.209,0,0,1,.352-.269l5.084-2.615a.714.714,0,0,1,.886.293.737.737,0,0,1-.292.99l-4.126,1.931,8.761,4.289,8.762-4.289-3.811-1.919a.789.789,0,0,1-.291-.99.909.909,0,0,1,1.031-.293l5.084,2.615a1.409,1.409,0,0,1,.34.232.565.565,0,0,1,.133.306v11.475a.663.663,0,0,1-.292.538l-10.375,5.279a.533.533,0,0,1-.437.147A.756.756,0,0,1-7023.974,191.947Zm1.311-11.426v9.9l8.907-4.436v-9.9Zm-10.168,5.462,8.761,4.289v-9.9h-.012l-8.749-4.289Zm8.919-10.595-2.16-2.065a.785.785,0,0,1,0-1.088.9.9,0,0,1,1.177,0l.886.843v-4c0-.55.243-.843.68-.843.388,0,.7.281.679.843v4l.886-.843a1.1,1.1,0,0,1,.583-.293.844.844,0,0,1,.885.843.748.748,0,0,1-.291.538l-2.148,2.065a.831.831,0,0,1-.588.22A.833.833,0,0,1-7023.913,175.389Z" transform="translate(7408 292)"/>
    </g>
  </g>
</svg>
