<svg xmlns="http://www.w3.org/2000/svg" width="129" height="50" viewBox="0 0 129 50">
  <defs>
    <style>
      .cls-1 {
        fill: #3a3a3a;
        font-size: 14px;
        font-family: PingFangSC-Regular, PingFang SC;
        letter-spacing: 0.05em;
      }

      .cls-2 {
        fill: #f7f7f7;
      }

      .cls-3 {
        fill: #747474;
      }
    </style>
  </defs>
  <g id="日志解析" transform="translate(-330 -209)">
    <text id="日志解析-2" data-name="日志解析" class="cls-1" transform="translate(400 240)"><tspan x="0" y="0">日志解析</tspan></text>
    <g id="日志解析-3" data-name="日志解析" transform="translate(-35.3 -262.8)">
      <rect id="矩形_1461_拷贝" data-name="矩形 1461 拷贝" class="cls-2" width="50" height="50" transform="translate(365.3 471.8)"/>
      <path id="联合_10" data-name="联合 10" class="cls-3" d="M-7023.949,146.8a4.681,4.681,0,0,1-4.752-4.666V127.466a4.681,4.681,0,0,1,4.752-4.666h12.222a4.68,4.68,0,0,1,4.751,4.666v6.667a.636.636,0,0,1-.68.667.636.636,0,0,1-.679-.667v-6.667a3.331,3.331,0,0,0-3.4-3.334h-12.219a3.335,3.335,0,0,0-3.4,3.334v14.666a3.331,3.331,0,0,0,3.4,3.334h5.431a.637.637,0,0,1,.68.667.635.635,0,0,1-.68.667Zm16.09-.6-1.687-1.659a4.81,4.81,0,0,1-2.858.924,4.68,4.68,0,0,1-4.751-4.666,4.68,4.68,0,0,1,4.751-4.666,4.68,4.68,0,0,1,4.752,4.666,4.61,4.61,0,0,1-.943,2.809l1.689,1.659a.633.633,0,0,1,0,.933.627.627,0,0,1-.476.2A.624.624,0,0,1-7007.858,146.2Zm-7.941-5.4a3.331,3.331,0,0,0,3.4,3.334,3.331,3.331,0,0,0,3.4-3.334,3.334,3.334,0,0,0-3.4-3.334A3.331,3.331,0,0,0-7015.8,140.8Zm-8.149-4.666a.636.636,0,0,1-.68-.667.637.637,0,0,1,.68-.667h5.431a.637.637,0,0,1,.68.667.636.636,0,0,1-.68.667Zm0-5.335a.637.637,0,0,1-.68-.667.637.637,0,0,1,.68-.667h12.222a.636.636,0,0,1,.679.667.635.635,0,0,1-.679.667Z" transform="translate(7408 361.999)"/>
    </g>
  </g>
</svg>
