<svg xmlns="http://www.w3.org/2000/svg" width="143" height="50" viewBox="0 0 143 50">
  <defs>
    <style>
      .cls-1 {
        fill: #3a3a3a;
        font-size: 14px;
        font-family: PingFangSC-Regular, PingFang SC;
        letter-spacing: 0.05em;
      }

      .cls-2 {
        fill: #f7f7f7;
      }

      .cls-3 {
        fill: #747474;
      }
    </style>
  </defs>
  <g id="规范性稽核" transform="translate(-330 -209)">
    <text id="规范性稽核-2" data-name="规范性稽核" class="cls-1" transform="translate(400 240)"><tspan x="0" y="0">规范性稽核</tspan></text>
    <g id="规范性稽核-3" data-name="规范性稽核" transform="translate(138 -227.091)">
      <rect id="矩形_1461_拷贝" data-name="矩形 1461 拷贝" class="cls-2" width="50" height="50" transform="translate(192 436.091)"/>
      <path id="联合_11" data-name="联合 11" class="cls-3" d="M-7200.242,39.091A1.867,1.867,0,0,1-7202,37.14V35.657a1.868,1.868,0,0,0,1.759,1.952h20.483A1.867,1.867,0,0,0-7178,35.657V37.14a1.867,1.867,0,0,1-1.758,1.952Zm0-2.966A1.868,1.868,0,0,1-7202,34.173V32.69a1.867,1.867,0,0,0,1.759,1.952h20.483A1.867,1.867,0,0,0-7178,32.69v1.483a1.867,1.867,0,0,1-1.758,1.952Zm0-2.966A1.868,1.868,0,0,1-7202,31.207V19.044a1.868,1.868,0,0,1,1.759-1.953h20.483A1.87,1.87,0,0,1-7178,19.043V31.207a1.867,1.867,0,0,1-1.758,1.952Zm12.794-1.536h7.5a.613.613,0,0,0,.576-.64V19.242a.613.613,0,0,0-.576-.639h-7.5Zm-13.069-12.381V30.983a.613.613,0,0,0,.577.639h11.3V18.6h-11.3A.613.613,0,0,0-7200.517,19.242Zm14.582,9.973v-1.35h5.022v1.35Zm-9.776-.564-.166-.18-3.208-3.561,1.091-1.211,2.458,2.731a.272.272,0,0,0,.409,0l3.41-3.788,1.091,1.21-4.162,4.619-.164.18a.512.512,0,0,1-.381.175A.513.513,0,0,1-7195.71,28.651Zm9.776-2.846V24.454h5.022V25.8Zm0-3.414v-1.35h5.022v1.35Z" transform="translate(7407.001 433)"/>
    </g>
  </g>
</svg>
