<svg xmlns="http://www.w3.org/2000/svg" width="129" height="50" viewBox="0 0 129 50">
  <defs>
    <style>
      .cls-1 {
        fill: #3a3a3a;
        font-size: 14px;
        font-family: PingFangSC-Regular, PingFang SC;
        letter-spacing: 0.05em;
      }

      .cls-2 {
        fill: #f7f7f7;
      }

      .cls-3 {
        fill: #747474;
      }
    </style>
  </defs>
  <g id="变更监控" transform="translate(-330 -209)">
    <text id="变更监控-2" data-name="变更监控" class="cls-1" transform="translate(400 240)"><tspan x="0" y="0">变更监控</tspan></text>
    <g id="变更监控-3" data-name="变更监控" transform="translate(-118.604 -411.247)">
      <rect id="矩形_1461_拷贝" data-name="矩形 1461 拷贝" class="cls-2" width="50" height="50" transform="translate(448.604 620.247)"/>
      <path id="联合_12" data-name="联合 12" class="cls-3" d="M-6942.548,154.463c.02-.641.529-.849,1.1-.755.823.137,1.184-.236,1.417-.956.268-.83.636-1.629.961-2.441h0a9.972,9.972,0,0,1-5.881-12.164,10.029,10.029,0,0,1,9.986-6.892,9.91,9.91,0,0,1,9.323,7.631c.987,4.294-.906,9.215-6.263,11.467.413,1.017.81,2.044,1.256,3.051a.731.731,0,0,0,.533.281,11.378,11.378,0,0,0,1.228.014c.567,0,.983.234.972.822-.011.562-.434.727-.965.726-2.665-.008-5.326,0-7.991,0q-.768,0-1.536,0c-1.025,0-2.049,0-3.074.006h-.026C-6942.083,155.247-6942.568,155.109-6942.548,154.463Zm10.275-.766c-.384-.952-.7-1.795-1.068-2.609a.68.68,0,0,0-.526-.273c-1.213-.023-2.425-.014-3.693-.014-.361.9-.74,1.852-1.155,2.9Zm-6.443,0Zm3.312-20.9a8.379,8.379,0,0,0-8.427,8.246,8.345,8.345,0,0,0,8.441,8.294h0a8.334,8.334,0,0,0,8.421-8.232,8.377,8.377,0,0,0-8.432-8.308Zm-5.207,9.84a5.225,5.225,0,0,1,5.187-5.112,5.2,5.2,0,0,1,5.218,5.145,5.172,5.172,0,0,1-5.172,5.1h-.01A5.207,5.207,0,0,1-6940.611,142.638Zm5.2-3.514a3.513,3.513,0,0,0-3.588,3.54,3.6,3.6,0,0,0,3.605,3.561,3.628,3.628,0,0,0,3.609-3.575,3.5,3.5,0,0,0-1.065-2.509,3.611,3.611,0,0,0-2.517-1.017Zm.112-2.343a1.167,1.167,0,0,1-1.2-1.2,1.16,1.16,0,0,1,1.164-1.152,1.214,1.214,0,0,1,1.261,1.155,1.214,1.214,0,0,1-1.221,1.192Z" transform="translate(7409 501.999)"/>
    </g>
  </g>
</svg>
