<svg xmlns="http://www.w3.org/2000/svg" width="158" height="50" viewBox="0 0 158 50">
  <defs>
    <style>
      .cls-1 {
        fill: #3a3a3a;
        font-size: 14px;
        font-family: PingFangSC-Regular, PingFang SC;
        letter-spacing: 0.05em;
      }

      .cls-2 {
        fill: #f7f7f7;
      }

      .cls-3 {
        fill: #747474;
      }
    </style>
  </defs>
  <g id="负面数据扫描" transform="translate(-330 -209)">
    <text id="负面数据扫描-2" data-name="负面数据扫描" class="cls-1" transform="translate(400 240)"><tspan x="0" y="0">负面数据扫描</tspan></text>
    <g id="负面数据扫描-3" data-name="负面数据扫描" transform="translate(-116.5 -451.3)">
      <rect id="矩形_1461_拷贝" data-name="矩形 1461 拷贝" class="cls-2" width="50" height="50" transform="translate(446.5 660.3)"/>
      <path id="联合_13" data-name="联合 13" class="cls-3" d="M-6948.6,72.2a12,12,0,0,1,11.042-11.96l0,.03.134,1.683a10.161,10.161,0,0,0-3.179.776,10.284,10.284,0,0,0-3.267,2.2,10.218,10.218,0,0,0-2.2,3.267,10.179,10.179,0,0,0-.808,4,10.189,10.189,0,0,0,.808,4,10.277,10.277,0,0,0,2.2,3.267,10.219,10.219,0,0,0,3.267,2.2,10.184,10.184,0,0,0,4,.808,10.194,10.194,0,0,0,4-.808,10.284,10.284,0,0,0,3.267-2.2,10.218,10.218,0,0,0,2.2-3.267,10.179,10.179,0,0,0,.808-4,10.189,10.189,0,0,0-.808-4,10.2,10.2,0,0,0-.979-1.8l1.4-.961s0,0,.005,0l.011-.011a11.956,11.956,0,0,1,2.094,6.77,12,12,0,0,1-12,12A12,12,0,0,1-6948.6,72.2Zm5.138.019a6.87,6.87,0,0,1,6.309-6.848l.137,1.713a5.12,5.12,0,0,0-3.219,1.493,5.12,5.12,0,0,0-1.509,3.643,5.12,5.12,0,0,0,1.509,3.643,5.121,5.121,0,0,0,3.643,1.509,5.12,5.12,0,0,0,3.643-1.509,5.12,5.12,0,0,0,1.509-3.643,5.113,5.113,0,0,0-.9-2.918l1.417-.969a6.838,6.838,0,0,1,1.205,3.887,6.871,6.871,0,0,1-6.87,6.87A6.871,6.871,0,0,1-6943.461,72.219Zm5.995.008a.858.858,0,0,1,.859-.859V60.2h.008a11.966,11.966,0,0,1,9.329,4.459s0,0-.005,0l-.011.011-8.655,7.012a.852.852,0,0,1,.193.542.858.858,0,0,1-.859.859A.858.858,0,0,1-6937.467,72.227Z" transform="translate(7408.1 613.1)"/>
    </g>
  </g>
</svg>
