<svg xmlns="http://www.w3.org/2000/svg" width="129" height="50" viewBox="0 0 129 50">
  <defs>
    <style>
      .cls-1 {
        fill: #3a3a3a;
        font-size: 14px;
        font-family: PingFangSC-Regular, PingFang SC;
        letter-spacing: 0.05em;
      }

      .cls-2 {
        fill: #f7f7f7;
      }

      .cls-3 {
        fill: #747474;
      }
    </style>
  </defs>
  <g id="指标计算" transform="translate(-330 -209)">
    <text id="指标计算-2" data-name="指标计算" class="cls-1" transform="translate(400 240)"><tspan x="0" y="0">指标计算</tspan></text>
    <g id="指标计算-3" data-name="指标计算">
      <rect id="矩形_1461_拷贝" data-name="矩形 1461 拷贝" class="cls-2" width="50" height="50" transform="translate(330 209)"/>
      <path id="路径_55" data-name="路径 55" class="cls-3" d="M72.691,84H52.642a1.956,1.956,0,0,0-1.975,1.935v18.13A1.956,1.956,0,0,0,52.642,106H54.1a.858.858,0,0,0,.667-.312l4.8-5.821,2.189,1.769a.875.875,0,0,0,1.175-.078L69.347,94.2l-.179,1.552a.856.856,0,0,0,1.712,0l.428-3.688a.823.823,0,0,0,.018-.162v-.013a.845.845,0,0,0-.856-.838l-3.94.438a.838.838,0,1,0,0,1.675l1.611-.179-5.919,6.85-2.232-1.8a.87.87,0,0,0-1.214.12L53.793,104.2a.284.284,0,0,1-.221.1h-.186a.977.977,0,0,1-.989-.967V86.659a.977.977,0,0,1,.989-.967H71.951a.977.977,0,0,1,.989.967v16.679a.977.977,0,0,1-.989.967H63.042a.847.847,0,1,0,0,1.695h9.649a1.956,1.956,0,0,0,1.975-1.935V85.935A1.956,1.956,0,0,0,72.691,84Zm0,0" transform="translate(292.333 139)"/>
    </g>
  </g>
</svg>
