<svg xmlns="http://www.w3.org/2000/svg" width="129" height="50" viewBox="0 0 129 50">
  <defs>
    <style>
      .cls-1 {
        fill: #3a3a3a;
        font-size: 14px;
        font-family: PingFangSC-Regular, PingFang SC;
        letter-spacing: 0.05em;
      }

      .cls-2 {
        fill: #f7f7f7;
      }

      .cls-3 {
        fill: #747474;
      }
    </style>
  </defs>
  <g id="标签计算" transform="translate(-330 -209)">
    <text id="标签计算-2" data-name="标签计算" class="cls-1" transform="translate(400 240)"><tspan x="0" y="0">标签计算</tspan></text>
    <g id="标签计算-3" data-name="标签计算" transform="translate(-114.2 -437.2)">
      <rect id="矩形_1461_拷贝" data-name="矩形 1461 拷贝" class="cls-2" width="50" height="50" transform="translate(444.2 646.2)"/>
      <path id="联合_14" data-name="联合 14" class="cls-3" d="M-6949.358,39.9a2.408,2.408,0,0,1-.442-1.409v-17.9a3.374,3.374,0,0,1,3.66-3.389h14.727a3.309,3.309,0,0,1,3.612,3.389V38.446a2.62,2.62,0,0,1-2.678,2.726,2.914,2.914,0,0,1-1.522-.409l-6.184-3.544a1.042,1.042,0,0,0-1.032,0l-6.381,3.588a2.933,2.933,0,0,1-1.44.391A2.762,2.762,0,0,1-6949.358,39.9Zm1.3-19.311v17.9a.917.917,0,0,0,.2.456c.245.453.883.837,1.325.564l6.381-3.738a3.039,3.039,0,0,1,3.042,0l6.185,3.694a.882.882,0,0,0,.492.135c.54,0,.981-.655.981-1.155h-.008l.106-17.859a1.9,1.9,0,0,0-1.963-1.817h-14.726A1.949,1.949,0,0,0-6948.058,20.588Zm5.546,8.072a.95.95,0,0,1-.981-.909.875.875,0,0,1,.981-.81h4.786a.875.875,0,0,1,.981.81.95.95,0,0,1-.981.909Zm-.191-4.536a.875.875,0,0,1-.982-.81.95.95,0,0,1,.982-.909h7.853a.95.95,0,0,1,.981.909.876.876,0,0,1-.981.81Z" transform="translate(7408 642.001)"/>
    </g>
  </g>
</svg>
