<svg xmlns="http://www.w3.org/2000/svg" width="129" height="50" viewBox="0 0 129 50">
  <defs>
    <style>
      .cls-1 {
        fill: #3a3a3a;
        font-size: 14px;
        font-family: PingFangSC-Regular, PingFang SC;
        letter-spacing: 0.05em;
      }

      .cls-2 {
        fill: #f7f7f7;
      }

      .cls-3 {
        fill: #747474;
      }
    </style>
  </defs>
  <g id="服务自检" transform="translate(-330 -209)">
    <text id="服务自检-2" data-name="服务自检" class="cls-1" transform="translate(400 240)"><tspan x="0" y="0">服务自检</tspan></text>
    <g id="服务自检-3" data-name="服务自检">
      <rect id="矩形_1461_拷贝" data-name="矩形 1461 拷贝" class="cls-2" width="50" height="50" transform="translate(330 209)"/>
      <path id="联合_45" data-name="联合 45" class="cls-3" d="M-6975.3-212.208c-5.583-2.251-9.055-6.15-10.262-11.7a22.709,22.709,0,0,1-.3-6.9,2.086,2.086,0,0,1,.454-.6l10.111-4.8h.6l10.111,4.8c.3.151.452.3.452.6h0a23.735,23.735,0,0,1-.3,7.05,10.374,10.374,0,0,1-.906,2.85c-.3.45-.6.6-1.057.45-.452-.3-.6-.6-.452-1.05a9.508,9.508,0,0,0,.905-2.7,17.017,17.017,0,0,0,.3-6l-9.356-4.35-9.356,4.35a17.092,17.092,0,0,0,.3,6c1.056,4.95,4.225,8.4,9.054,10.5a16.69,16.69,0,0,0,3.923-2.25.748.748,0,0,1,1.057.15c.3.3.151.75-.151,1.05a22.091,22.091,0,0,1-4.527,2.55Zm6.488-4.95-3.018-3a4.991,4.991,0,0,1-2.867.9,5.214,5.214,0,0,1-3.471-1.5,4.781,4.781,0,0,1,0-6.9,4.848,4.848,0,0,1,6.941,0,4.953,4.953,0,0,1,.453,6.3l3.169,3.15a.723.723,0,0,1,.227.525.723.723,0,0,1-.227.525c-.151.15-.3.15-.6.15S-6968.661-217.008-6968.812-217.158Zm-8.3-9.45a3.338,3.338,0,0,0,0,4.8,3.688,3.688,0,0,0,4.829,0,3.336,3.336,0,0,0,0-4.8,3.012,3.012,0,0,0-2.414-1.05A3.575,3.575,0,0,0-6977.111-226.609Z" transform="translate(7329.998 458.208)"/>
    </g>
  </g>
</svg>
